<svg xmlns="http://www.w3.org/2000/svg" viewBox="0 0 2048 1216" role="img" aria-labelledby="title desc">
  <title id="title">Mavicat database workspace</title>
  <desc id="desc">A dark Mavicat database management workspace with connection tree, SQL editor, autocomplete menu, and data grid.</desc>
  <defs>
    <linearGradient id="chrome" x1="0" x2="1" y1="0" y2="1">
      <stop offset="0" stop-color="#3a3a3a"/>
      <stop offset="1" stop-color="#242424"/>
    </linearGradient>
    <linearGradient id="accent" x1="0" x2="1" y1="0" y2="1">
      <stop offset="0" stop-color="#34d399"/>
      <stop offset="1" stop-color="#3b82f6"/>
    </linearGradient>
    <filter id="shadow" x="-20%" y="-20%" width="140%" height="140%">
      <feDropShadow dx="0" dy="28" stdDeviation="36" flood-color="#000" flood-opacity=".42"/>
    </filter>
  </defs>
  <rect width="2048" height="1216" rx="26" fill="#171717"/>
  <rect x="1" y="1" width="2046" height="1214" rx="25" fill="none" stroke="#575757" stroke-width="2"/>
  <rect x="0" y="0" width="2048" height="42" rx="24" fill="#222"/>
  <circle cx="22" cy="21" r="9" fill="#ff5f57"/>
  <circle cx="52" cy="21" r="9" fill="#ffbd2e"/>
  <circle cx="83" cy="21" r="9" fill="#28c840"/>
  <text x="114" y="29" fill="#a7a7a7" font-family="Inter, Arial, sans-serif" font-size="18" font-weight="700">Mavicat - 测试 RDS</text>
  <rect x="0" y="42" width="2048" height="112" fill="url(#chrome)"/>
  <g font-family="Inter, Arial, sans-serif" font-weight="700" font-size="14" text-anchor="middle">
    <g transform="translate(66 88)">
      <path d="M0 0v25M-12 13h25" stroke="#6ee7b7" stroke-width="4" stroke-linecap="round"/>
      <text y="40" fill="#f4f4f5">连接</text>
    </g>
    <g transform="translate(176 86)">
      <path d="M-12 -15h19l10 10v31h-29z" fill="none" stroke="#7dd3fc" stroke-width="4" stroke-linejoin="round"/>
      <path d="M5 -14v12h12" fill="none" stroke="#7dd3fc" stroke-width="4"/>
      <path d="M18 13h18M27 4v18" stroke="#7dd3fc" stroke-width="4" stroke-linecap="round"/>
      <text y="42" fill="#f4f4f5">新建查询</text>
    </g>
    <g transform="translate(286 86)">
      <path d="M0 -14v31M-11 -3 0 -14 11 -3M-18 17v10h36V17" fill="none" stroke="#67e8f9" stroke-width="4" stroke-linecap="round" stroke-linejoin="round"/>
      <text y="42" fill="#f4f4f5">导入</text>
    </g>
    <g transform="translate(396 86)">
      <path d="M0 -14v31M-11 6 0 17 11 6M-18 27h36" fill="none" stroke="#a5b4fc" stroke-width="4" stroke-linecap="round" stroke-linejoin="round"/>
      <text y="42" fill="#f4f4f5">导出</text>
    </g>
    <g transform="translate(506 86)">
      <ellipse cx="0" cy="-8" rx="15" ry="7" fill="none" stroke="#fde047" stroke-width="4"/>
      <path d="M-15 -8v30c0 4 7 7 15 7s15-3 15-7V-8" fill="none" stroke="#fde047" stroke-width="4"/>
      <path d="M8 14c18 3 18 21 2 24M10 38h20v-20" fill="none" stroke="#fde047" stroke-width="4" stroke-linecap="round"/>
      <text y="42" fill="#f4f4f5">备份</text>
    </g>
    <g transform="translate(616 86)">
      <path d="M-14 -16h18l12 12v30h-30z" fill="none" stroke="#f9a8d4" stroke-width="4" stroke-linejoin="round"/>
      <path d="M4 -16v14h14M-5 11h22M8 0l12 11-12 11" fill="none" stroke="#f9a8d4" stroke-width="4" stroke-linecap="round" stroke-linejoin="round"/>
      <text y="42" fill="#f4f4f5">SQL文件</text>
    </g>
    <g transform="translate(726 86)">
      <path d="M-17 -9h29M0 -22l17 13L0 4M17 18h-29M0 5l-17 13L0 31" fill="none" stroke="#c4b5fd" stroke-width="4" stroke-linecap="round" stroke-linejoin="round"/>
      <text y="42" fill="#f4f4f5">结构同步</text>
    </g>
    <g transform="translate(836 86)">
      <path d="M-16 -15h32v9h-32zM-10 -6h20v32h-20z" fill="none" stroke="#a3e635" stroke-width="4" stroke-linejoin="round"/>
      <text y="42" fill="#f4f4f5">数据迁移</text>
    </g>
  </g>
  <rect x="0" y="154" width="491" height="1062" fill="#222"/>
  <rect x="491" y="154" width="1557" height="1062" fill="#1f1f1f"/>
  <rect x="0" y="154" width="491" height="43" fill="#242424" stroke="#3b3b3b"/>
  <rect x="13" y="166" width="23" height="23" rx="5" fill="#6ee06e"/>
  <text x="50" y="187" fill="#f4f4f5" font-family="Inter, Arial, sans-serif" font-size="20" font-weight="800">我的连接</text>
  <text x="422" y="184" fill="#c6c6c6" font-family="Inter, Arial, sans-serif" font-size="29">＋</text>
  <text x="452" y="184" fill="#c6c6c6" font-family="Inter, Arial, sans-serif" font-size="25">⚙</text>
  <rect x="9" y="209" width="475" height="40" rx="8" fill="#1b1b1b" stroke="#3d3d3d"/>
  <text x="36" y="236" fill="#8a8a8a" font-family="Inter, Arial, sans-serif" font-size="20">搜索</text>
  <g font-family="Inter, Arial, sans-serif">
    <text x="30" y="291" fill="#f5f5f5" font-size="24" font-weight="800">本地 Mysql</text>
    <text x="34" y="324" fill="#9ca3af" font-size="13" font-weight="700">数据库（17）</text>
    <rect x="22" y="342" width="459" height="38" fill="#194f38"/>
    <rect x="23" y="342" width="3" height="38" fill="#34d399"/>
    <text x="72" y="367" fill="#e5e7eb" font-size="22" font-weight="800">erp_system</text>
    <g fill="#9aa3aa" font-size="18" font-weight="700">
      <text x="72" y="407">ecommerce</text>
      <text x="72" y="445">inventory</text>
      <text x="72" y="483">mall</text>
      <text x="72" y="521">portal</text>
      <text x="72" y="559">reporting</text>
      <text x="72" y="597">test</text>
      <text x="72" y="635">views</text>
      <text x="72" y="673">warehouse</text>
      <text x="72" y="711">workflow</text>
      <text x="72" y="749">zhu_jw_db</text>
    </g>
    <rect x="0" y="997" width="482" height="36" fill="#2f7edb"/>
    <text x="66" y="1023" fill="#fff" font-size="22" font-weight="800">测试RDS</text>
  </g>
  <g fill="#aab4bd">
    <circle cx="80" cy="361" r="8"/>
    <circle cx="80" cy="399" r="8"/>
    <circle cx="80" cy="437" r="8"/>
    <circle cx="80" cy="475" r="8"/>
    <circle cx="80" cy="513" r="8"/>
    <circle cx="80" cy="551" r="8"/>
    <circle cx="80" cy="589" r="8"/>
    <circle cx="80" cy="627" r="8"/>
    <circle cx="80" cy="665" r="8"/>
    <circle cx="80" cy="703" r="8"/>
    <circle cx="80" cy="741" r="8"/>
  </g>
  <rect x="492" y="154" width="1556" height="109" fill="#252525" stroke="#3b3b3b"/>
  <rect x="554" y="157" width="297" height="38" fill="#202020" stroke="#444"/>
  <rect x="568" y="161" width="11" height="15" rx="2" fill="#22c55e"/>
  <text x="590" y="182" fill="#b6b6b6" font-family="Inter, Arial, sans-serif" font-size="16">( e_system_dev )</text>
  <rect x="503" y="206" width="215" height="44" rx="6" fill="#242424" stroke="#4a4a4a"/>
  <text x="538" y="234" fill="#f5f5f5" font-family="Inter, Arial, sans-serif" font-size="17" font-weight="800">测试RDS</text>
  <rect x="729" y="206" width="327" height="44" rx="6" fill="#242424" stroke="#4a4a4a"/>
  <circle cx="748" cy="227" r="8" fill="#4ade80"/>
  <text x="769" y="234" fill="#bdbdbd" font-family="Inter, Arial, sans-serif" font-size="17" font-weight="700">e_system_dev</text>
  <rect x="1065" y="210" width="126" height="37" rx="6" fill="#19a45b"/>
  <text x="1118" y="235" fill="#fff" font-family="Inter, Arial, sans-serif" font-size="17" font-weight="800" text-anchor="middle">▶ 运行</text>
  <rect x="1202" y="210" width="92" height="37" rx="6" fill="#2a2a2a" stroke="#4a4a4a"/>
  <text x="1248" y="235" fill="#8d8d8d" font-family="Inter, Arial, sans-serif" font-size="16" font-weight="800" text-anchor="middle">参数</text>
  <rect x="1304" y="210" width="128" height="37" rx="6" fill="#2a2a2a" stroke="#4a4a4a"/>
  <text x="1368" y="235" fill="#ededed" font-family="Inter, Arial, sans-serif" font-size="16" font-weight="800" text-anchor="middle">美化 SQL</text>
  <rect x="491" y="263" width="1557" height="407" fill="#1f1f1f" stroke="#3b3b3b"/>
  <g font-family="SFMono-Regular, Consolas, monospace" font-size="22" font-weight="700">
    <text x="538" y="306" fill="#bcbcbc">1</text>
    <text x="586" y="306" fill="#ff5b7f">select</text>
    <text x="668" y="306" fill="#cfcfcf">* from</text>
    <text x="744" y="306" fill="#f472b6">sys_dept</text>
    <text x="847" y="306" fill="#d6d3d1">;</text>
  </g>
  <rect x="850" y="314" width="579" height="340" rx="3" fill="#202020" stroke="#515151" filter="url(#shadow)"/>
  <rect x="850" y="314" width="579" height="30" fill="#004a73"/>
  <g font-family="SFMono-Regular, Consolas, monospace" font-size="21" font-weight="800">
    <text x="878" y="337" fill="#fff">ancestors</text>
    <text x="1012" y="337" fill="#b9e3ff">varchar(500) — sys_dept</text>
    <g fill="#f2f2f2">
      <text x="878" y="365">create_by</text>
      <text x="878" y="394">create_dept</text>
      <text x="878" y="423">create_time</text>
      <text x="878" y="452">del_flag</text>
      <text x="878" y="481">dept_category</text>
      <text x="878" y="510">dept_id</text>
      <text x="878" y="539">dept_name</text>
      <text x="878" y="568">email</text>
      <text x="878" y="597">leader</text>
      <text x="878" y="626">order_num</text>
      <text x="878" y="646">parent_id</text>
    </g>
  </g>
  <rect x="491" y="670" width="1557" height="86" fill="#242424" stroke="#3b3b3b"/>
  <text x="503" y="731" fill="#c3c3c3" font-family="Inter, Arial, sans-serif" font-size="15">已检索 11 行 （3.14 s）</text>
  <rect x="1482" y="706" width="72" height="36" rx="6" fill="#282828" stroke="#4a4a4a"/>
  <text x="1518" y="730" fill="#e5e5e5" font-family="Inter, Arial, sans-serif" font-size="16" text-anchor="middle">统计</text>
  <rect x="1569" y="706" width="157" height="38" rx="6" fill="#282828" stroke="#4a4a4a"/>
  <text x="1648" y="731" fill="#ededed" font-family="Inter, Arial, sans-serif" font-size="16" text-anchor="middle">200条/页</text>
  <rect x="492" y="806" width="1556" height="410" fill="#222" stroke="#3b3b3b"/>
  <rect x="492" y="806" width="1556" height="67" fill="#242424"/>
  <g font-family="SFMono-Regular, Consolas, monospace" font-size="16" font-weight="800" fill="#d4d4d4">
    <text x="524" y="860">#</text>
    <text x="580" y="860">dept_id</text>
    <text x="678" y="860">tenant_id</text>
    <text x="788" y="860">parent_id</text>
    <text x="906" y="860">ancestors</text>
    <text x="1024" y="860">dept_name</text>
    <text x="1216" y="860">dept_category</text>
    <text x="1364" y="860">order_num</text>
    <text x="1478" y="860">leader</text>
    <text x="1568" y="860">phone</text>
    <text x="1705" y="860">email</text>
    <text x="1835" y="860">status</text>
  </g>
  <g font-family="SFMono-Regular, Consolas, monospace" font-size="18" fill="#d6d6d6">
    <g opacity=".9">
      <text x="524" y="897">1</text><text x="580" y="897">100</text><text x="678" y="897">000000</text><text x="788" y="897">0</text><text x="906" y="897">0</text><text x="1024" y="897">研发部</text><text x="1216" y="897" font-style="italic">null</text><text x="1364" y="897">0</text><text x="1478" y="897" font-style="italic">null</text><text x="1568" y="897">15888888888</text><text x="1705" y="897">xxx@qq.com</text><text x="1835" y="897">0</text>
    </g>
    <g opacity=".82">
      <text x="524" y="933">2</text><text x="580" y="933">101</text><text x="678" y="933">000000</text><text x="788" y="933">100</text><text x="906" y="933">0,100</text><text x="1024" y="933">市场部</text><text x="1216" y="933" font-style="italic">null</text><text x="1364" y="933">1</text><text x="1478" y="933" font-style="italic">null</text><text x="1568" y="933">15888888888</text><text x="1705" y="933">xxx@qq.com</text><text x="1835" y="933">0</text>
    </g>
    <g opacity=".74">
      <text x="524" y="969">3</text><text x="580" y="969">102</text><text x="678" y="969">000000</text><text x="788" y="969">100</text><text x="906" y="969">0,100</text><text x="1024" y="969">财务部</text><text x="1216" y="969" font-style="italic">null</text><text x="1364" y="969">2</text><text x="1478" y="969" font-style="italic">null</text><text x="1568" y="969">15888888888</text><text x="1705" y="969">xxx@qq.com</text><text x="1835" y="969">0</text>
    </g>
    <g opacity=".66">
      <text x="524" y="1005">4</text><text x="580" y="1005">103</text><text x="678" y="1005">000000</text><text x="788" y="1005">101</text><text x="906" y="1005">0,100,101</text><text x="1024" y="1005">运营部</text><text x="1216" y="1005" font-style="italic">null</text><text x="1364" y="1005">1</text><text x="1478" y="1005">1</text><text x="1568" y="1005">15888888888</text><text x="1705" y="1005">xxx@qq.com</text><text x="1835" y="1005">0</text>
    </g>
    <g opacity=".58">
      <text x="524" y="1041">5</text><text x="580" y="1041">104</text><text x="678" y="1041">000000</text><text x="788" y="1041">101</text><text x="906" y="1041">0,100,101</text><text x="1024" y="1041">产品部</text><text x="1216" y="1041" font-style="italic">null</text><text x="1364" y="1041">2</text><text x="1478" y="1041" font-style="italic">null</text><text x="1568" y="1041">15888888888</text><text x="1705" y="1041">xxx@qq.com</text><text x="1835" y="1041">0</text>
    </g>
  </g>
  <g stroke="#3c3c3c">
    <path d="M561 874v342M659 874v342M773 874v342M887 874v342M1007 874v342M1198 874v342M1347 874v342M1460 874v342M1549 874v342M1688 874v342M1815 874v342"/>
    <path d="M492 910h1556M492 946h1556M492 982h1556M492 1018h1556M492 1054h1556"/>
  </g>
  <rect x="498" y="1164" width="1016" height="17" rx="8" fill="#d1d5db" opacity=".7"/>
</svg>
