<svg xmlns="http://www.w3.org/2000/svg" viewBox="0 0 2048 1216" role="img" aria-labelledby="title desc">
  <title id="title">Mavicat database object workspace</title>
  <desc id="desc">A modern dark Mavicat database management workspace showing connection navigation, object search, table cards, and brand blue orange accents.</desc>
  <defs>
    <linearGradient id="window" x1="0" x2="1" y1="0" y2="1">
      <stop offset="0" stop-color="#30343b"/>
      <stop offset=".45" stop-color="#24272d"/>
      <stop offset="1" stop-color="#171a1f"/>
    </linearGradient>
    <linearGradient id="panel" x1="0" x2="1" y1="0" y2="1">
      <stop offset="0" stop-color="#272b31"/>
      <stop offset="1" stop-color="#1d2025"/>
    </linearGradient>
    <linearGradient id="brand" x1="0" x2="1" y1="0" y2="1">
      <stop offset="0" stop-color="#0f7cff"/>
      <stop offset=".48" stop-color="#42b7ff"/>
      <stop offset="1" stop-color="#ff8a18"/>
    </linearGradient>
    <linearGradient id="blueGlow" x1="0" x2="1">
      <stop offset="0" stop-color="#0f7cff" stop-opacity=".22"/>
      <stop offset="1" stop-color="#ff8a18" stop-opacity=".16"/>
    </linearGradient>
    <filter id="shadow" x="-20%" y="-20%" width="140%" height="140%">
      <feDropShadow dx="0" dy="34" stdDeviation="42" flood-color="#02040a" flood-opacity=".55"/>
    </filter>
    <filter id="softGlow" x="-40%" y="-40%" width="180%" height="180%">
      <feGaussianBlur stdDeviation="22" result="blur"/>
      <feMerge>
        <feMergeNode in="blur"/>
        <feMergeNode in="SourceGraphic"/>
      </feMerge>
    </filter>
    <symbol id="dbIcon" viewBox="0 0 32 32">
      <ellipse cx="16" cy="8" rx="11" ry="5" fill="#47d36f"/>
      <path d="M5 8v14c0 3 5 6 11 6s11-3 11-6V8" fill="#31b857"/>
      <path d="M5 15c0 3 5 6 11 6s11-3 11-6" fill="none" stroke="#83f39c" stroke-width="2"/>
      <path d="M5 22c0 3 5 6 11 6s11-3 11-6" fill="none" stroke="#83f39c" stroke-width="2"/>
    </symbol>
    <symbol id="tableIcon" viewBox="0 0 48 48">
      <rect x="6" y="8" width="36" height="32" rx="4" fill="none" stroke="#63d5ff" stroke-width="4"/>
      <path d="M6 19h36M19 8v32" stroke="#63d5ff" stroke-width="4" stroke-linecap="round"/>
      <rect x="10" y="12" width="7" height="5" rx="1" fill="#63d5ff"/>
    </symbol>
  </defs>

  <rect width="2048" height="1216" rx="30" fill="#0d1118"/>
  <rect x="1" y="1" width="2046" height="1214" rx="29" fill="url(#window)" stroke="#4a5260" stroke-width="2"/>
  <circle cx="1540" cy="130" r="280" fill="#0f7cff" opacity=".12" filter="url(#softGlow)"/>
  <circle cx="1824" cy="282" r="210" fill="#ff8a18" opacity=".08" filter="url(#softGlow)"/>

  <rect x="0" y="0" width="2048" height="56" rx="28" fill="#191c22"/>
  <circle cx="24" cy="28" r="10" fill="#ff5f57"/>
  <circle cx="56" cy="28" r="10" fill="#ffbd2e"/>
  <circle cx="88" cy="28" r="10" fill="#28c840"/>
  <text x="128" y="36" fill="#d8dde7" font-family="Inter, Arial, sans-serif" font-size="20" font-weight="800">Mavicat - 对象浏览工作台</text>

  <rect x="0" y="56" width="2048" height="104" fill="#2b2e35"/>
  <rect x="0" y="158" width="2048" height="1" fill="#464b55"/>
  <g font-family="Inter, Arial, sans-serif" font-size="14" font-weight="800" text-anchor="middle">
    <g transform="translate(72 98)">
      <path d="M0-17v31M-15-2H15" stroke="#58e4bb" stroke-width="5" stroke-linecap="round"/>
      <text y="42" fill="#e8edf4">连接</text>
    </g>
    <g transform="translate(182 98)">
      <path d="M-14-22h20l12 12v37h-32z" fill="none" stroke="#63d5ff" stroke-width="4" stroke-linejoin="round"/>
      <path d="M6-21v13h13M18 9h22M29-2v22" stroke="#63d5ff" stroke-width="4" stroke-linecap="round"/>
      <text y="42" fill="#e8edf4">新建查询</text>
    </g>
    <g transform="translate(294 98)">
      <path d="M0-22v36M-13-9 0-22 13-9M-22 17v12h44V17" fill="none" stroke="#58d8ff" stroke-width="4" stroke-linecap="round" stroke-linejoin="round"/>
      <text y="42" fill="#e8edf4">导入</text>
    </g>
    <g transform="translate(404 98)">
      <path d="M0-22v36M-13 1 0 14 13 1M-22 28h44" fill="none" stroke="#91a7ff" stroke-width="4" stroke-linecap="round" stroke-linejoin="round"/>
      <text y="42" fill="#e8edf4">导出</text>
    </g>
    <g transform="translate(514 98)">
      <ellipse cx="0" cy="-13" rx="16" ry="7" fill="none" stroke="#ffd447" stroke-width="4"/>
      <path d="M-16-13v34c0 4 7 7 16 7s16-3 16-7v-34" fill="none" stroke="#ffd447" stroke-width="4"/>
      <path d="M8 12c20 4 20 25 2 28M12 40h22V18" fill="none" stroke="#ffd447" stroke-width="4" stroke-linecap="round"/>
      <text y="42" fill="#e8edf4">备份</text>
    </g>
    <g transform="translate(624 98)">
      <path d="M-16-22h20l14 14v36h-34z" fill="none" stroke="#ff9ac7" stroke-width="4" stroke-linejoin="round"/>
      <path d="M4-22v15h15M-4 10h22M8-2l13 13-13 13" fill="none" stroke="#ff9ac7" stroke-width="4" stroke-linecap="round"/>
      <text y="42" fill="#e8edf4">SQL文件</text>
    </g>
    <g transform="translate(744 98)">
      <path d="M-20-11h34M0-25l19 14L0 3M20 19h-34M0 5l-19 14L0 33" fill="none" stroke="#b8a7ff" stroke-width="4" stroke-linecap="round" stroke-linejoin="round"/>
      <text y="42" fill="#e8edf4">结构同步</text>
    </g>
    <g transform="translate(864 98)">
      <path d="M-18-22h36v10h-36zM-11-12h22v40h-22z" fill="none" stroke="#95e83a" stroke-width="4" stroke-linejoin="round"/>
      <text y="42" fill="#e8edf4">数据迁移</text>
    </g>
  </g>
  <rect x="1968" y="78" width="52" height="52" rx="12" fill="#f7fbff"/>
  <path d="M1994 91c-15 2-23 15-18 27 10-9 23-13 34-7-2-12-7-18-16-20z" fill="#0f7cff"/>
  <path d="M1998 91c15 2 23 15 18 27-10-9-23-13-34-7 2-12 7-18 16-20z" fill="#ff8a18"/>

  <rect x="0" y="160" width="408" height="1056" fill="#202329"/>
  <rect x="408" y="160" width="1640" height="1056" fill="#25282e"/>
  <rect x="0" y="160" width="408" height="58" fill="#242830" stroke="#40454f"/>
  <use href="#dbIcon" x="16" y="174" width="30" height="30"/>
  <text x="58" y="198" fill="#f5f7fb" font-family="Inter, Arial, sans-serif" font-size="22" font-weight="900">我的连接</text>
  <text x="346" y="199" fill="#cbd3df" font-family="Inter, Arial, sans-serif" font-size="28">＋</text>
  <text x="377" y="198" fill="#cbd3df" font-family="Inter, Arial, sans-serif" font-size="24">⚙</text>
  <rect x="12" y="231" width="384" height="46" rx="10" fill="#1c1f25" stroke="#4a505a"/>
  <text x="44" y="260" fill="#9aa4b4" font-family="Inter, Arial, sans-serif" font-size="19">搜索连接...</text>
  <circle cx="30" cy="253" r="9" fill="none" stroke="#9aa4b4" stroke-width="3"/>
  <path d="M37 260l8 8" stroke="#9aa4b4" stroke-width="3" stroke-linecap="round"/>

  <g font-family="Inter, Arial, sans-serif">
    <text x="48" y="326" fill="#f6f8fb" font-size="25" font-weight="900">本地 Mysql</text>
    <text x="48" y="360" fill="#8d98a8" font-size="14" font-weight="800">数据库（203）</text>
    <rect x="22" y="380" width="362" height="42" rx="0" fill="#164c36"/>
    <rect x="22" y="380" width="4" height="42" fill="#20d99b"/>
    <use href="#dbIcon" x="52" y="390" width="24" height="24"/>
    <text x="86" y="407" fill="#eaf1f8" font-size="22" font-weight="900">vat_dws_dev</text>
    <g fill="#a6b0bd" font-size="17" font-weight="760">
      <text x="88" y="454">act_app</text>
      <text x="88" y="492">act_cmmn</text>
      <text x="88" y="530">act_dmn</text>
      <text x="88" y="568">act_evt</text>
      <text x="88" y="606">act_fo</text>
      <text x="88" y="644">sys_config</text>
      <text x="88" y="682">sys_dept</text>
      <text x="88" y="720">sys_user</text>
      <text x="88" y="758">workflow</text>
      <text x="88" y="796">reporting</text>
    </g>
    <g fill="#8f99a6">
      <circle cx="64" cy="448" r="6"/><circle cx="64" cy="486" r="6"/><circle cx="64" cy="524" r="6"/><circle cx="64" cy="562" r="6"/>
      <circle cx="64" cy="600" r="6"/><circle cx="64" cy="638" r="6"/><circle cx="64" cy="676" r="6"/><circle cx="64" cy="714" r="6"/><circle cx="64" cy="752" r="6"/><circle cx="64" cy="790" r="6"/>
    </g>
    <rect x="0" y="1012" width="408" height="48" fill="#2674d8"/>
    <use href="#dbIcon" x="16" y="1021" width="28" height="28"/>
    <text x="58" y="1043" fill="#fff" font-size="22" font-weight="900">测试RDS</text>
  </g>

  <rect x="408" y="160" width="1640" height="108" fill="#272b32" stroke="#40454f"/>
  <rect x="428" y="184" width="360" height="44" rx="10" fill="#1f232a" stroke="#4b5260"/>
  <use href="#dbIcon" x="450" y="193" width="26" height="26"/>
  <text x="486" y="213" fill="#f7f9fc" font-family="Inter, Arial, sans-serif" font-size="19" font-weight="900">vat_dws_dev</text>
  <text x="486" y="242" fill="#95a0b2" font-family="Inter, Arial, sans-serif" font-size="14" font-weight="750">戴维斯 · 203 表 / 0 视图</text>
  <rect x="1738" y="187" width="126" height="48" rx="9" fill="#2c3037" stroke="#4f5661"/>
  <text x="1801" y="218" fill="#909aaa" font-family="Inter, Arial, sans-serif" font-size="18" font-weight="900" text-anchor="middle">复制表</text>
  <rect x="1880" y="187" width="146" height="48" rx="9" fill="#163d35" stroke="#1f765c"/>
  <text x="1953" y="218" fill="#82e0bd" font-family="Inter, Arial, sans-serif" font-size="18" font-weight="900" text-anchor="middle">粘贴到此库</text>

  <rect x="408" y="268" width="1640" height="74" fill="#24272d" stroke="#444a55"/>
  <rect x="428" y="291" width="470" height="46" rx="10" fill="#1d2026" stroke="#606874"/>
  <circle cx="448" cy="314" r="10" fill="none" stroke="#9ba6b7" stroke-width="3"/>
  <path d="M456 322l9 9" stroke="#9ba6b7" stroke-width="3" stroke-linecap="round"/>
  <text x="482" y="321" fill="#9ba6b7" font-family="Inter, Arial, sans-serif" font-size="19" font-weight="800">搜索表...</text>
  <rect x="922" y="291" width="48" height="46" rx="9" fill="#2b2f36" stroke="#4f5663"/>
  <path d="M936 303h22M936 314h22M936 325h22" stroke="#c8d0dc" stroke-width="3" stroke-linecap="round"/>
  <rect x="982" y="291" width="48" height="46" rx="9" fill="#1e395c" stroke="#327fe8"/>
  <path d="M996 304h22v22h-22zM1007 304v22M996 315h22" fill="none" stroke="#9ed8ff" stroke-width="3" stroke-linecap="round"/>

  <g font-family="Inter, Arial, sans-serif" filter="url(#shadow)">
    <g transform="translate(432 378)">
      <rect width="236" height="192" rx="8" fill="url(#panel)" stroke="#327fe8" stroke-width="2"/>
      <use href="#tableIcon" x="18" y="36" width="56" height="56"/>
      <text x="18" y="124" fill="#f5f7fa" font-size="23" font-weight="900">act_app_appdef</text>
      <text x="18" y="153" fill="#99a3b1" font-size="15" font-weight="900">BASE TABLE</text>
    </g>
    <g transform="translate(686 378)">
      <rect width="236" height="192" rx="8" fill="url(#panel)" stroke="#4a505b"/>
      <use href="#tableIcon" x="18" y="26" width="56" height="56"/>
      <text x="18" y="112" fill="#f5f7fa" font-size="21" font-weight="900">act_app_database</text>
      <text x="18" y="139" fill="#f5f7fa" font-size="21" font-weight="900">changelog</text>
      <text x="18" y="168" fill="#99a3b1" font-size="15" font-weight="900">BASE TABLE</text>
    </g>
    <g transform="translate(940 378)">
      <rect width="236" height="192" rx="8" fill="url(#panel)" stroke="#4a505b"/>
      <use href="#tableIcon" x="18" y="26" width="56" height="56"/>
      <text x="18" y="112" fill="#f5f7fa" font-size="21" font-weight="900">act_app_deployme</text>
      <text x="18" y="139" fill="#f5f7fa" font-size="21" font-weight="900">nt_resource</text>
      <text x="18" y="168" fill="#99a3b1" font-size="15" font-weight="900">BASE TABLE</text>
    </g>
    <g transform="translate(1194 378)">
      <rect width="236" height="192" rx="8" fill="url(#panel)" stroke="#4a505b"/>
      <use href="#tableIcon" x="18" y="26" width="56" height="56"/>
      <text x="18" y="112" fill="#f5f7fa" font-size="21" font-weight="900">act_cmmn_casedef</text>
      <text x="18" y="168" fill="#99a3b1" font-size="15" font-weight="900">BASE TABLE</text>
    </g>
    <g transform="translate(1448 378)">
      <rect width="236" height="192" rx="8" fill="url(#panel)" stroke="#4a505b"/>
      <use href="#tableIcon" x="18" y="26" width="56" height="56"/>
      <text x="18" y="112" fill="#f5f7fa" font-size="21" font-weight="900">act_cmmn_database</text>
      <text x="18" y="139" fill="#f5f7fa" font-size="21" font-weight="900">changeloglock</text>
      <text x="18" y="168" fill="#99a3b1" font-size="15" font-weight="900">BASE TABLE</text>
    </g>
    <g transform="translate(1702 378)">
      <rect width="236" height="192" rx="8" fill="url(#panel)" stroke="#4a505b"/>
      <use href="#tableIcon" x="18" y="26" width="56" height="56"/>
      <text x="18" y="112" fill="#f5f7fa" font-size="21" font-weight="900">act_cmmn_dep</text>
      <text x="18" y="139" fill="#f5f7fa" font-size="21" font-weight="900">resource</text>
      <text x="18" y="168" fill="#99a3b1" font-size="15" font-weight="900">BASE TABLE</text>
    </g>

    <g transform="translate(432 590)">
      <rect width="236" height="192" rx="8" fill="url(#panel)" stroke="#4a505b"/>
      <use href="#tableIcon" x="18" y="26" width="56" height="56"/>
      <text x="18" y="112" fill="#f5f7fa" font-size="21" font-weight="900">act_cmmn_hi_case</text>
      <text x="18" y="139" fill="#f5f7fa" font-size="21" font-weight="900">_inst</text>
      <text x="18" y="168" fill="#99a3b1" font-size="15" font-weight="900">BASE TABLE</text>
    </g>
    <g transform="translate(686 590)">
      <rect width="236" height="192" rx="8" fill="url(#panel)" stroke="#4a505b"/>
      <use href="#tableIcon" x="18" y="26" width="56" height="56"/>
      <text x="18" y="112" fill="#f5f7fa" font-size="21" font-weight="900">act_cmmn_hi_plan</text>
      <text x="18" y="139" fill="#f5f7fa" font-size="21" font-weight="900">_item_inst</text>
      <text x="18" y="168" fill="#99a3b1" font-size="15" font-weight="900">BASE TABLE</text>
    </g>
    <g transform="translate(940 590)">
      <rect width="236" height="192" rx="8" fill="url(#panel)" stroke="#4a505b"/>
      <use href="#tableIcon" x="18" y="26" width="56" height="56"/>
      <text x="18" y="112" fill="#f5f7fa" font-size="21" font-weight="900">act_cmmn_ru_case</text>
      <text x="18" y="139" fill="#f5f7fa" font-size="21" font-weight="900">_inst</text>
      <text x="18" y="168" fill="#99a3b1" font-size="15" font-weight="900">BASE TABLE</text>
    </g>
    <g transform="translate(1194 590)">
      <rect width="236" height="192" rx="8" fill="url(#panel)" stroke="#4a505b"/>
      <use href="#tableIcon" x="18" y="26" width="56" height="56"/>
      <text x="18" y="112" fill="#f5f7fa" font-size="21" font-weight="900">act_co_content</text>
      <text x="18" y="139" fill="#f5f7fa" font-size="21" font-weight="900">_item</text>
      <text x="18" y="168" fill="#99a3b1" font-size="15" font-weight="900">BASE TABLE</text>
    </g>
    <g transform="translate(1448 590)">
      <rect width="236" height="192" rx="8" fill="url(#panel)" stroke="#4a505b"/>
      <use href="#tableIcon" x="18" y="26" width="56" height="56"/>
      <text x="18" y="112" fill="#f5f7fa" font-size="21" font-weight="900">act_dmn_database</text>
      <text x="18" y="139" fill="#f5f7fa" font-size="21" font-weight="900">changelog</text>
      <text x="18" y="168" fill="#99a3b1" font-size="15" font-weight="900">BASE TABLE</text>
    </g>
    <g transform="translate(1702 590)">
      <rect width="236" height="192" rx="8" fill="url(#panel)" stroke="#4a505b"/>
      <use href="#tableIcon" x="18" y="26" width="56" height="56"/>
      <text x="18" y="112" fill="#f5f7fa" font-size="21" font-weight="900">act_dmn_decision</text>
      <text x="18" y="139" fill="#f5f7fa" font-size="21" font-weight="900">_table</text>
      <text x="18" y="168" fill="#99a3b1" font-size="15" font-weight="900">BASE TABLE</text>
    </g>

    <g transform="translate(432 802)">
      <rect width="236" height="192" rx="8" fill="url(#panel)" stroke="#4a505b"/>
      <use href="#tableIcon" x="18" y="26" width="56" height="56"/>
      <text x="18" y="112" fill="#f5f7fa" font-size="21" font-weight="900">act_evt_log</text>
      <text x="18" y="168" fill="#99a3b1" font-size="15" font-weight="900">BASE TABLE</text>
    </g>
    <g transform="translate(686 802)">
      <rect width="236" height="192" rx="8" fill="url(#panel)" stroke="#4a505b"/>
      <use href="#tableIcon" x="18" y="26" width="56" height="56"/>
      <text x="18" y="112" fill="#f5f7fa" font-size="21" font-weight="900">sys_config</text>
      <text x="18" y="168" fill="#99a3b1" font-size="15" font-weight="900">BASE TABLE</text>
    </g>
    <g transform="translate(940 802)">
      <rect width="236" height="192" rx="8" fill="url(#panel)" stroke="#4a505b"/>
      <use href="#tableIcon" x="18" y="26" width="56" height="56"/>
      <text x="18" y="112" fill="#f5f7fa" font-size="21" font-weight="900">sys_dept</text>
      <text x="18" y="168" fill="#99a3b1" font-size="15" font-weight="900">BASE TABLE</text>
    </g>
    <g transform="translate(1194 802)">
      <rect width="236" height="192" rx="8" fill="url(#panel)" stroke="#4a505b"/>
      <use href="#tableIcon" x="18" y="26" width="56" height="56"/>
      <text x="18" y="112" fill="#f5f7fa" font-size="21" font-weight="900">sys_user</text>
      <text x="18" y="168" fill="#99a3b1" font-size="15" font-weight="900">BASE TABLE</text>
    </g>
    <g transform="translate(1448 802)">
      <rect width="236" height="192" rx="8" fill="url(#panel)" stroke="#4a505b"/>
      <use href="#tableIcon" x="18" y="26" width="56" height="56"/>
      <text x="18" y="112" fill="#f5f7fa" font-size="21" font-weight="900">workflow_task</text>
      <text x="18" y="168" fill="#99a3b1" font-size="15" font-weight="900">BASE TABLE</text>
    </g>
    <g transform="translate(1702 802)">
      <rect width="236" height="192" rx="8" fill="url(#panel)" stroke="#4a505b"/>
      <use href="#tableIcon" x="18" y="26" width="56" height="56"/>
      <text x="18" y="112" fill="#f5f7fa" font-size="21" font-weight="900">report_index</text>
      <text x="18" y="168" fill="#99a3b1" font-size="15" font-weight="900">BASE TABLE</text>
    </g>
  </g>

  <rect x="408" y="1084" width="1640" height="52" fill="#1d2026" stroke="#3d434d"/>
  <text x="432" y="1116" fill="#98a3b3" font-family="Inter, Arial, sans-serif" font-size="16" font-weight="800">203 tables · Grid view · Ready</text>
  <rect x="1784" y="1098" width="190" height="24" rx="12" fill="url(#blueGlow)"/>
  <text x="1879" y="1116" fill="#c8e7ff" font-family="Inter, Arial, sans-serif" font-size="14" font-weight="900" text-anchor="middle">Mavicat object browser</text>
</svg>
